<svg width="125" height="75" fill="none" xmlns="http://www.w3.org/2000/svg"><rect width="125" height="75" rx="37.5" fill="#FFEDD0"/><path d="M53.635 23.458s.013.184.017.518l.002.133c0 .046.002.093-.003.152l-.03.373c-.013.133-.025.283-.042.433-.017.147-.034.305-.058.47-.109.8-.275 1.592-.497 2.368a19.611 19.611 0 0 1-1.11 2.963 21.315 21.315 0 0 1-1.91 3.267c-.096.14-.2.275-.302.412l-.155.207-.078.104-.02.026c.062-.057-.095.092-.082.08l-.008.011-.032.044c-.173.232-.356.46-.536.695l-.017.021-.024.027-.049.055-.097.108-.198.216-.404.434-.102.108-.096.099c-.064.066-.129.13-.194.195l-.396.391a23.92 23.92 0 0 1-3.606 2.86 24.944 24.944 0 0 1-4.237 2.2 25.358 25.358 0 0 1-4.58 1.364 24.586 24.586 0 0 1-4.595.464 23.714 23.714 0 0 1-4.279-.364c-.67-.114-1.314-.269-1.93-.429-.614-.175-1.2-.35-1.752-.56l-.409-.15c-.134-.049-.265-.108-.394-.161-.26-.108-.51-.216-.753-.325a23.241 23.241 0 0 1-.7-.343l-.33-.167c-.109-.055-.213-.118-.316-.175a16.864 16.864 0 0 1-1.131-.684c-.34-.227-.65-.432-.916-.641l-.379-.294-.326-.266c-.2-.17-.364-.323-.497-.446-.264-.246-.398-.387-.398-.387a3.273 3.273 0 0 1 2.038-5.513l.393-.04s.165-.016.46-.03c.147-.007.327-.016.534-.018l.336-.02.374-.015c.26-.002.55-.027.857-.037.305-.007.638-.038.982-.051.345-.016.712-.054 1.087-.072.38-.04.77-.058 1.175-.105l.305-.03.153-.013.155-.02.313-.038.316-.032c.212-.03.426-.06.642-.085l.162-.02.164-.027.328-.048a45.04 45.04 0 0 0 2.703-.492 40.188 40.188 0 0 0 5.565-1.607c.92-.342 1.826-.717 2.719-1.123.89-.404 1.758-.84 2.602-1.288l.313-.173c.052-.029.104-.057.157-.084l.08-.042.067-.036.27-.145.137-.071.07-.034.035-.017.017-.009.023-.015c.248-.161.49-.325.736-.479l.046-.029.011-.007c.02-.018-.13.125-.062.062l.018-.011.074-.046.147-.09.292-.18a50.707 50.707 0 0 0 2.204-1.447c.644-.449 1.28-.91 1.906-1.383.578-.434 1.089-.838 1.52-1.177.107-.086.212-.166.31-.243.096-.075.184-.139.268-.203l.234-.176c.037-.024.075-.059.11-.089l.1-.086c.255-.218.401-.329.401-.329a2.561 2.561 0 0 1 4.102 1.857Z" fill="#FFAE2C"/><path d="M16.83 36.25c-.4.915-.756 1.036-1.697.624-.943-.413-1.094-.756-.693-1.672.4-.915 2.792.132 2.39 1.047Z" fill="#B28E7F"/><path d="M55.706 24.635s.043.202.101.575l.023.148c.008.053.018.105.022.172l.024.42c.008.151.019.32.023.491.004.167.01.347.01.536a19.13 19.13 0 0 1-.179 2.724 22.13 22.13 0 0 1-.77 3.487 24.052 24.052 0 0 1-1.615 3.954c-.084.173-.178.34-.271.51l-.14.255-.071.128-.018.032c.06-.073-.092.118-.079.103l-.007.014-.03.053c-.156.288-.323.571-.488.862l-.015.027-.023.034-.045.068-.092.137-.187.273-.382.549-.097.137-.091.125c-.061.084-.123.167-.186.25l-.38.5a26.996 26.996 0 0 1-3.575 3.768 28.149 28.149 0 0 1-4.385 3.131c-1.56.904-3.2 1.658-4.901 2.253a27.74 27.74 0 0 1-5.061 1.25 26.757 26.757 0 0 1-4.838.273 25.947 25.947 0 0 1-2.225-.173 24.483 24.483 0 0 1-2.047-.347l-.48-.102c-.159-.034-.314-.08-.467-.118a34.425 34.425 0 0 1-.893-.243c-.289-.087-.567-.18-.836-.272l-.397-.135c-.13-.044-.256-.098-.38-.145-.24-.094-.48-.19-.717-.29-.23-.09-.448-.197-.656-.294-.416-.2-.794-.38-1.126-.571a29.716 29.716 0 0 1-.877-.511c-.21-.138-.419-.278-.625-.422-.335-.233-.507-.37-.507-.37a3.694 3.694 0 0 1 1.402-6.484l.432-.106s.181-.045.508-.107c.164-.031.364-.07.595-.108.233-.047.497-.098.788-.149.29-.044.61-.118.952-.178.34-.056.707-.143 1.09-.214.382-.072.786-.173 1.203-.252.212-.052.424-.102.637-.148.216-.045.436-.103.658-.157l.336-.082.17-.038.17-.047.343-.092.348-.086.35-.102.532-.144.178-.056c.12-.037.24-.07.36-.106a50.865 50.865 0 0 0 2.942-.98 45.326 45.326 0 0 0 5.962-2.68 46.61 46.61 0 0 0 2.86-1.687c.93-.592 1.83-1.218 2.703-1.853l.322-.243a6.1 6.1 0 0 1 .162-.12l.082-.058.07-.052.28-.204.14-.101.073-.05.036-.024.019-.013.023-.02c.252-.22.495-.441.746-.652l.046-.04.012-.01c.02-.023-.126.16-.06.08l.019-.016.075-.063.15-.124.298-.247a57.231 57.231 0 0 0 2.233-1.968 69.804 69.804 0 0 0 1.91-1.848c.577-.577 1.083-1.11 1.511-1.557.105-.113.21-.22.307-.32.095-.1.184-.185.268-.27l.233-.234c.037-.033.074-.077.109-.117l.099-.112c.249-.284.395-.431.395-.431a2.89 2.89 0 0 1 4.879 1.424Z" fill="#FFB93E"/><path d="M16.614 44.778c-.303 1.087-3.14.297-2.838-.79.302-1.086.68-1.278 1.798-.967 1.118.311 1.342.67 1.04 1.757Z" fill="#A07562"/><path d="M54.084 15.65a.861.861 0 0 0-.348-.023 1.62 1.62 0 0 0-.402-.253c-.586-.256-1.222.31-1.546.664-.985 1.08 1.232 2.495-.343 5.102-.223.368-.033 1.314.306 1.462.382.168.833.046 1.167-.279l-.028.07c-.19.446.172 1.473.574 1.585.598.166 1.248-.246 1.512-.95.743-1.983 1.536-6.703-.892-7.379Z" fill="#8E6049"/><path d="M59.224 23.194s.101.174.268.503l.066.13c.023.046.047.09.072.155l.155.398c.055.144.118.304.176.466.055.159.117.328.177.508.29.869.522 1.756.693 2.656.201 1.045.353 2.246.4 3.57.05 1.324-.016 2.77-.222 4.29-.021.191-.055.38-.086.573l-.047.288-.024.146-.006.036c.03-.094-.045.15-.038.13l-.003.015-.01.06c-.052.321-.116.643-.174.97l-.006.03-.01.04-.02.08-.04.161-.084.323-.174.65-.045.163-.044.15c-.03.1-.06.199-.092.298l-.188.6a28.36 28.36 0 0 1-2.076 4.776 28.933 28.933 0 0 1-3.029 4.46 29.077 29.077 0 0 1-3.795 3.825 28.268 28.268 0 0 1-4.276 2.962 27.412 27.412 0 0 1-4.401 1.991c-.72.258-1.437.462-2.128.646-.698.169-1.37.322-2.024.424l-.482.081c-.159.027-.32.042-.475.062-.313.04-.619.074-.916.103-.299.026-.59.042-.873.057l-.416.022c-.136.008-.273.004-.405.007-.532.002-1.025.005-1.484-.029-.458-.029-.873-.052-1.25-.104l-.533-.07-.466-.072a19.287 19.287 0 0 1-1.338-.292 3.655 3.655 0 0 1-1.043-6.57l.36-.238s.154-.101.437-.269c.142-.083.315-.187.518-.297l.322-.197.362-.211c.256-.14.53-.32.828-.493.299-.17.611-.378.945-.577.334-.2.677-.436 1.04-.657.354-.246.73-.475 1.105-.744l.286-.196.145-.097.143-.104.289-.21.295-.205.291-.222.298-.218.15-.11.146-.117.298-.23c.796-.62 1.6-1.287 2.394-2a42.065 42.065 0 0 0 2.338-2.26c.759-.795 1.49-1.63 2.187-2.492a43.727 43.727 0 0 0 3.708-5.4l.196-.345c.032-.058.065-.115.1-.171l.05-.085.043-.074.168-.292.086-.145.045-.072.023-.036.01-.018.014-.029c.144-.299.28-.597.426-.888l.027-.055.007-.013c.01-.03-.063.205-.03.1l.01-.02.044-.086.085-.17.17-.339c.445-.901.856-1.783 1.215-2.625.336-.785.656-1.576.96-2.374.283-.73.518-1.391.717-1.947.048-.139.098-.272.143-.397.044-.122.088-.227.128-.331l.112-.288c.019-.04.034-.096.049-.145l.042-.14c.107-.352.176-.542.176-.542a3.777 3.777 0 0 1 6.815-.597Z" fill="#FFCE6C"/><path d="M58.554 32.707s.06.283.122.771c.008.061.017.126.024.193l.011.103.006.116c.008.157.009.328.013.512.003.183.003.382-.002.586l-.041.631c-.029.442-.105.912-.19 1.412-.02.126-.05.25-.079.376l-.09.383c-.065.257-.127.523-.215.783-.084.267-.172.533-.262.798-.1.265-.21.53-.32.798-.057.132-.108.269-.173.399l-.19.393-.196.393c-.064.132-.135.26-.209.386-.145.255-.292.507-.44.758a32.6 32.6 0 0 1-.481.724c-.157.24-.332.466-.504.689-.174.22-.339.444-.52.649-.36.41-.707.804-1.072 1.146l-.265.255c-.088.083-.172.167-.262.242-.18.152-.349.301-.519.437a12 12 0 0 1-.946.711c-.146.1-.28.194-.408.276a14.47 14.47 0 0 1-.879.5c-.12.062-.187.094-.187.094a.794.794 0 0 1-1.038-1.095l.013-.025.097-.176c.064-.113.158-.278.284-.48.062-.1.133-.21.21-.33.072-.123.153-.252.239-.391.171-.278.374-.578.578-.917.102-.17.216-.337.33-.515.11-.18.222-.367.34-.554.244-.372.476-.778.732-1.183.066-.1.125-.205.186-.31l.186-.316.192-.316c.065-.105.122-.216.185-.324.121-.218.25-.433.376-.65.12-.223.24-.444.364-.663.128-.218.235-.445.355-.666.116-.222.24-.44.345-.663.11-.22.222-.439.336-.656.101-.218.205-.434.312-.648.11-.211.2-.425.298-.632l.145-.307c.05-.099.096-.2.14-.301.084-.196.171-.39.26-.584.095-.186.165-.373.241-.55l.227-.511c.072-.16.129-.31.192-.454.064-.142.12-.278.18-.403l.043-.092.037-.097c.024-.064.048-.124.071-.18.183-.458.313-.716.313-.716a.804.804 0 0 1 1.505.191Z" fill="#FFDF95"/><path d="M29.23 56.226c.112 1.123-.17 1.439-1.325 1.554-1.155.116-1.494-.137-1.607-1.26-.112-1.123.17-1.438 1.325-1.554 1.155-.116 1.494.138 1.606 1.26Z" fill="#8E6049"/><path d="M56.02 23.472c.618-.062 1.075-.682 1.065-1.434-.027-2.117 1.6-5.404-.644-6.552-2.657-1.359-4.745.508-4.868 1.036-.371 1.607 2.464 1.867 3.358 6.362.095.475.674.63 1.09.588Z" fill="#966C5A"/><path d="M55.706 18.68c-.715 1.157 0 4.823.315 4.792.617-.062 2.26-8.97-.316-4.793Z" fill="#1AC84B"/></svg>